<svg width="268" height="255" viewBox="0 0 268 255" fill="none" xmlns="http://www.w3.org/2000/svg">
<path d="M242.661 95.0879C242.246 91.1062 240.142 68.6283 239.86 67.547C239.338 65.5117 237.663 65.0792 235.773 64.4813C219.693 59.3929 211.037 57.2176 211.037 56.7342C211.037 54.19 211.479 49.8395 211.627 47.219C211.734 45.3235 208.652 43.4027 207.272 42.1306C186.421 23.1128 171.561 15.4166 163.722 9.59041C160.331 7.04622 160.398 6.16848 158.362 6.37201C147.642 7.44057 114.584 12.4653 95.0466 18.0117C94.2962 18.2279 92.9428 18.3043 92.5542 19.0294C92.3633 19.9727 92.3316 20.9388 92.4604 21.8916C92.3264 23.9269 92.2058 25.9623 92.112 27.9976C83.9246 26.3057 67.992 23.4181 67.8446 23.4435C66.987 23.6089 66.6922 24.6393 66.4108 25.3008C62.2741 35.23 57.1264 44.7523 51.041 53.7321C50.3844 54.6734 49.3392 55.5893 49.2052 56.7597C49.2268 57.3231 49.3167 57.8823 49.4732 58.4261C49.6474 59.6982 53.6138 89.6688 53.8014 90.5211C75.5764 94.8843 79.4758 95.9783 80.7354 96.3091C77.1141 100.175 74.3196 104.673 72.5078 109.552C68.7022 120.695 72.1058 125.542 82.1558 132.144C86.0692 134.709 90.4488 136.563 95.0734 137.614C91.978 142.283 88.1456 148.783 88.9228 154.457C88.9228 154.622 89.3382 155.054 89.298 155.169C89.2578 155.283 88.4538 155.716 88.3198 155.805C75.8578 164.15 57.0174 194.464 32.7232 190.724C32.348 190.66 31.7986 190.533 31.6378 190.978C31.5555 191.204 31.5059 191.44 31.4904 191.678C31.4904 191.462 30.5658 191.335 30.405 191.296C27.4704 190.609 26.251 194.477 25.6614 196.448C25.2862 197.72 23.2494 203.47 26.1974 202.949C28.0868 202.605 29.6546 199.272 30.6596 197.86C33.3396 200.277 39.4902 202.033 40.6158 202.287C47.1923 203.782 53.9833 204.238 60.7158 203.636C76.3134 202.287 90.6112 195.278 97.5926 188.536C98.678 187.48 99.9912 185.343 101.613 185.063C102.953 184.872 103.85 186.068 104.628 186.819C116.286 198.064 118.028 201.969 117.947 201.842C125.164 213.977 129.884 227.303 131.856 241.112C131.95 241.799 131.856 242.524 132.459 242.88C132.875 243.109 133.88 242.664 133.907 243.096C134.014 244.673 133.478 245.971 134.63 247.192C136.077 248.744 140.794 247.777 142.67 247.561C144.01 247.408 146.154 247.307 147.052 246.289C147.95 245.271 146.744 244.279 145.712 243.91C144.372 243.452 139.99 243.63 139.307 242.524C141.022 242.32 141.558 242.447 142.268 240.819C146.677 230.884 147.092 218.354 146.288 207.745C145.136 192.861 138.248 180.28 128.104 169.175C130.423 167.572 131.709 165.053 132.995 162.687C136.01 157.161 138 151.184 138.878 145.018C142.042 145.052 145.206 144.908 148.352 144.585C154.409 143.745 160.666 142.13 165.169 137.881C169.38 133.708 171.773 128.178 171.869 122.4C179.252 124.753 207.071 133.849 208.049 134.205C208.517 134.426 209.012 134.592 209.523 134.701C210.662 134.472 212.35 131.75 213.127 130.885C221.868 121.113 231.505 112.097 241.924 103.942C243.88 102.352 243.559 103.84 242.661 95.0879ZM31.2224 193.841C30.9276 195.85 30.7802 197.517 29.3196 199.171C28.6496 199.921 25.5408 204.259 25.2996 201.219C25.112 198.891 26.8138 195.113 27.8992 193.065C28.5424 191.793 28.797 191.449 30.3782 191.793C31.9594 192.136 31.41 192.607 31.2224 193.841ZM139.213 242.88C140.553 243.859 143.112 243.694 144.694 244.152C145.27 244.317 146.757 244.61 146.838 245.424C146.945 246.391 144.694 246.696 144.05 246.696C142.534 246.949 141.004 247.119 139.468 247.205C138.409 247.205 136.118 247.637 135.206 247.027C134.295 246.416 134.577 244.012 134.429 242.867C135.582 242.829 138.422 242.269 139.213 242.88ZM160.13 8.22927C176.806 19.0929 192.706 30.9918 207.727 43.8479C208.663 44.5514 209.549 45.312 210.38 46.125C211.225 47.0918 210.818 45.7561 210.055 56.7342C175.657 46.7101 157.048 42.614 156.566 42.5122C156.78 41.1765 158.924 22.0061 160.13 8.22927ZM93.5324 19.4364C114.124 13.5936 135.259 9.64046 156.646 7.63139C157.008 7.63139 158.482 7.24976 158.764 7.44057C159.045 7.63139 158.844 8.97981 158.764 9.66674C157.893 18.2915 155.84 31.6563 155.278 42.1002C141.697 38.0259 93.1304 28.1884 92.8758 28.1248C92.9294 26.7128 93.0902 20.0597 93.5324 19.4364ZM101.84 161.555C98.7043 160.061 95.6819 158.36 92.7954 156.466C90.9998 155.194 89.6196 154.342 89.9546 152.04C90.9194 144.636 95.4754 137.296 100.594 131.432C101.331 130.592 102.886 129.066 102.631 128.887C102.162 128.519 96.7618 134.51 95.5826 136.863C88.4652 134.996 81.9163 131.552 76.4742 126.814C72.347 122.82 71.275 119.805 72.548 113.33C74.2096 104.934 80.4004 97.772 86.7922 91.7804C88.2796 90.3939 89.6598 88.9055 91.8708 88.7783C93.0098 88.7783 96.4402 89.0454 97.2308 90.0504C97.7132 90.6355 97.2308 92.5946 97.2308 93.2942C97.0566 94.9861 96.7886 96.6525 96.4938 98.3826C95.8977 102.437 94.7771 106.406 93.1572 110.2C92.9562 110.62 92.1522 111.765 92.1924 112.159C92.1924 112.872 92.6748 112.694 93.318 112.834C99.482 114.169 106.946 115.734 111.944 119.614C113.673 120.962 116.213 123.541 118.156 123.134C118.62 122.977 118.609 123.134 119.061 122.681C119.371 122.318 119.812 121.629 119.877 121.166C121.737 122.213 123.811 122.872 125.96 123.099C125.357 126.661 126.939 130.376 127.113 133.95C127.676 146.379 119.716 167.877 117.317 168.17C112.989 166.643 113.713 167.457 101.84 161.555ZM90.7184 84.644C90.4504 83.639 91.1874 84.3896 91.6296 84.733C92.0718 85.0765 92.8758 86.0051 93.1572 85.509C93.4386 85.0129 91.6028 84.0079 92.0852 83.2956C92.8088 83.2956 93.5726 84.1479 94.0952 84.5677C94.2828 84.7203 95.2476 85.8398 95.4352 85.8398C96.199 85.8398 95.5424 85.2673 95.4352 84.8221C95.1806 83.2956 95.6228 83.2192 96.467 84.5295C96.6278 84.873 96.8556 85.1783 97.0164 85.5217C97.4784 86.5476 97.6225 87.6774 97.4318 88.7783V88.9691C96.6843 88.6507 95.9194 88.3704 95.1404 88.1295C94.122 87.8624 92.38 88.015 91.5626 87.5825C91.2812 87.4426 90.4504 86.7557 90.4504 86.3995C90.4504 85.5981 91.4956 86.3995 91.9646 86.603C92.4336 86.8066 90.8524 85.1147 90.7184 84.644ZM128.118 122.681C126.687 122.706 124.977 122.557 123.588 122.229C122.244 121.909 121.323 121.387 120.105 120.761C120.185 120.434 120.194 120.329 120.239 119.995C120.466 119.995 120.667 120.008 120.868 119.856C121.59 118.709 121.843 117.351 121.579 116.039C121.404 115.785 120.533 115.683 120.239 115.518C118.054 114.246 118.899 111.409 120.667 112.108C121.324 112.363 122.878 114.78 123.964 114.004C124.714 113.47 122.905 110.709 122.624 109.997C122.848 110.24 123.121 110.437 123.427 110.577C123.734 110.717 124.066 110.796 124.406 110.811C123.68 110.01 123.235 109.014 123.133 107.961C125.572 109.921 128.828 109.068 131.709 109.297C132.942 109.321 134.155 109.603 135.26 110.124C136.185 110.747 135.984 112.668 136.051 113.8C136.198 116.345 136.345 120.008 133.786 121.433C131.468 122.705 128.292 122.018 128.118 122.082C127.944 122.145 128.118 122.681 128.118 122.681ZM128.493 122.527C132.513 123.596 135.662 121.662 136.372 119.003C136.879 116.482 136.879 113.892 136.372 111.371L144.091 113.724C145.216 114.068 150.965 115.212 151.126 116.268C151.444 118.25 151.919 120.206 152.546 122.12C149.955 121.712 147.456 121.368 144.865 121.776C141.876 121.964 138.726 122.466 135.811 123.125C133.576 123.656 131.412 124.577 129.257 125.351C128.681 125.351 128.614 124.575 128.56 124.193C128.547 124.041 128.493 122.527 128.493 122.527ZM136.292 109.399C136.612 109.718 136.908 110.058 137.176 110.417C136.252 110.099 136.747 110.391 136.292 109.399ZM130.637 103.496C125.934 104.679 121.257 105.761 116.487 106.575C119.485 104.885 122.576 103.348 125.746 101.97C130.342 99.96 132.299 98.866 135.809 100.049C141.625 102.021 134.161 102.568 130.637 103.458V103.496ZM129.779 99.7946C118.818 103.051 117.719 104.883 113.807 106.638C113.713 106.117 113.659 105.583 113.619 105.048C113.407 102.977 113.938 100.899 115.124 99.1488C116.311 97.399 118.084 96.0803 120.158 95.4059C122.342 94.7826 124.178 94.2865 126.362 95.1642C128.607 96.0792 130.642 97.4015 132.352 99.0568C131.91 99.4893 130.436 99.5656 129.779 99.7565V99.7946ZM118.872 118.723C119.207 119.194 119.461 119.995 119.89 119.995C118.55 127.068 114.061 119.868 109.411 117.362C104.356 114.776 98.9089 112.948 93.2644 111.943C95.1346 108.292 96.4476 104.407 97.1638 100.405C97.1638 100.405 105.726 102.835 106.544 103.064C108.621 103.636 110.751 103.993 112.842 104.641C113.043 114.92 117.264 116.434 118.872 118.723ZM170.73 122.629C170.448 129.549 167.259 136.215 161.068 140.082C154.663 144.076 146.489 144.165 139.039 144.153C139.467 140.858 139.597 137.534 139.427 134.218C139.427 133.76 138.999 133.671 139.012 134.141C139.298 142.529 137.523 150.865 133.826 158.489C132.325 161.58 130.65 165.486 127.863 167.724C125.076 169.963 121.257 169.111 118.041 168.335C120.721 165.536 122.061 161.148 123.401 157.281C124.768 153.259 125.883 149.164 126.738 145.018C129.525 130.859 125.049 127.984 126.336 123.125C126.906 123.173 127.48 123.173 128.051 123.125C128.212 125.211 128.882 127.488 131.883 126.407C131.464 126.518 131.024 126.534 130.597 126.452C130.171 126.37 129.771 126.193 129.431 125.936C135.434 123.188 141.947 122.502 148.526 122.412C149.955 122.45 151.379 122.586 152.787 122.82C152.948 123.023 153.698 123.532 153.578 122.463C153.339 121.525 153.035 120.603 152.667 119.703C151.327 114.487 149.893 101.983 153.511 97.8738C155.186 95.9656 158.254 96.5253 160.211 97.6702C164.673 100.291 171.212 111.129 170.73 122.629ZM157.169 93.2433C157.169 93.4214 158.362 92.849 158.509 92.7981C160.961 91.6659 162.087 92.3147 161.189 92.9253L159.929 93.7267C159.608 93.9303 160.157 94.0575 160.318 94.0575C160.479 94.0575 162.293 93.4284 162.521 93.7083C162.963 94.268 160.72 94.7444 160.626 94.8716C159.916 95.6985 161.189 94.9479 161.765 95.2532C162.341 95.5585 161.43 95.7239 160.948 95.9402C159.809 96.449 159.393 95.9402 158.268 95.7748C157.038 95.4299 155.719 95.5064 154.543 95.9911C154.633 95.1686 154.922 94.377 155.386 93.6776C155.851 92.9783 156.48 92.39 157.223 91.9585C157.893 91.5006 160.144 90.5592 158.469 92.0603C157.986 92.3529 157.062 92.6963 157.169 93.2433ZM212.109 131.406C211.56 132.017 210.568 133.594 209.818 133.95C209.067 134.307 209.523 134.116 208.799 133.95C207.052 133.52 205.341 132.967 203.68 132.297C171.842 121.382 171.882 121.624 171.855 121.28C171.748 120.008 171.534 118.596 171.453 117.54C171.205 113.932 170.265 110.397 168.68 107.109C166.938 103.293 164.405 98.6497 160.345 96.6017C161.122 96.4872 163.521 95.0624 161.43 94.9734C162.944 94.4137 163.641 92.5055 161.43 93.2433C163.614 91.3098 159.929 91.8059 158.857 92.1239C159.648 91.8949 159.46 90.343 158.013 90.8518C156.933 91.3075 155.989 92.0111 155.266 92.8994C154.543 93.7876 154.064 94.8326 153.873 95.9402C153.712 96.9451 152.948 96.8943 152.332 97.683C151.682 98.6046 151.227 99.6371 150.992 100.723C150.44 102.987 150.192 105.308 150.255 107.631C150.327 109.955 150.533 112.273 150.871 114.576C148.968 113.737 137.846 110.875 137.886 110.557C138.121 109.158 138.121 107.732 137.886 106.333C137.819 105.977 136.841 103.064 136.386 103.166C137.471 102.924 139.24 102.517 138.932 101.092C138.543 99.3367 134.402 99.2731 133.451 99.0314C132.5 98.7897 132.111 98.2681 131.253 97.543C126.483 93.2306 123.615 92.391 117.585 95.9402C116.254 96.7712 115.138 97.8787 114.324 99.1789C113.509 100.479 113.016 101.938 112.882 103.446C108.353 102.25 103.824 101.067 99.281 99.9346C98.8888 99.8685 98.5032 99.7706 98.1286 99.642C97.9544 99.5529 97.4452 99.642 97.3514 99.4512C97.4045 98.7718 97.5256 98.0988 97.7132 97.4413C97.9678 96.0038 98.209 94.5663 98.3564 93.1161C98.6292 91.9902 98.6292 90.8201 98.3564 89.6942C98.3564 89.4907 97.7802 89.1599 97.6328 89.0327C97.9752 87.7969 97.8858 86.489 97.3782 85.3055C97.1638 84.6949 96.6412 83.2701 95.8372 83.1429C94.8054 82.9648 94.8322 84.0588 95.0198 84.733C94.4436 84.1988 90.4906 81.3365 91.777 84.2115C90.1288 82.7867 89.8742 84.6821 91.0534 85.8143C89.1104 85.1401 90.3834 87.3917 91.3616 87.7225C86.8726 88.2313 82.397 94.1592 81.459 95.4186C77.5194 94.2737 56.0928 90.2666 54.7528 90.114C54.0828 86.8574 53.8148 84.3387 50.7328 57.1413C115.24 67.4198 178.904 85.2291 242.54 102.644C231.536 111.395 221.333 121.017 212.042 131.406H212.109ZM50.7328 56.3526C56.8022 47.3099 62.043 37.7894 66.3974 27.8959C66.7726 27.0435 67.2952 24.9319 68.4342 24.6902C69.5732 24.4485 72.2398 25.4025 73.553 25.6442C119.033 34.1291 146.529 38.7723 235.465 65.6389C236.327 65.8048 237.155 66.1012 237.917 66.5166C239.137 67.4325 238.963 69.5315 239.137 70.8926C239.405 73.0806 242.808 101.423 242.889 102.11C179.654 84.1097 116.781 65.7661 50.6658 56.3272L50.7328 56.3526Z" fill="#37393B"/>
<path d="M60.2988 52.6275C66.4773 54.4489 72.9259 55.3081 79.3938 55.1717L60.2988 52.6275ZM72.4258 50.7957C68.7522 49.9734 65.029 49.3659 61.277 48.9766C64.8146 50.3291 68.6156 50.9492 72.4258 50.7957ZM233.976 68.8721C233.829 67.9053 218.325 64.4325 217.508 64.4579C216.69 64.4834 216.878 65.2848 216.771 65.73C216.127 68.2742 215.605 70.0424 215.35 71.6453C215.283 72.0651 214.962 73.6297 215.685 73.7442C220.951 74.622 233.762 78.8326 234.097 78.8326C234.432 78.8326 234.083 69.47 233.976 68.8721ZM217.695 73.2481C216.355 72.9047 216.275 73.0191 216.355 71.6834C216.491 69.4277 216.942 67.1991 217.695 65.0558C218.204 65.1322 232.904 69.1901 233.052 69.381C233.521 70.017 233.4 76.2503 233.614 77.9549C230.117 76.6319 224.65 75.0545 217.695 73.2481ZM162.058 33.0754C165.757 35.4542 169.026 36.3828 179.13 42.4889C179.532 42.7306 180.765 43.761 181.14 43.761C182.011 43.6083 181.823 42.4889 181.957 41.7002C182.453 38.6344 182.748 35.5432 182.922 32.4521C183.123 28.7884 182.359 28.076 179.492 26.0916C176.624 24.1071 168.986 19.0315 165.77 17.3396C165.315 17.0979 164.269 16.182 164.068 17.0979C163.144 21.4103 162.728 24.6541 161.884 29.9969C161.764 30.7093 161.268 32.592 162.058 33.0754ZM162.648 30.086C163.425 24.6796 163.988 20.2145 164.43 17.0597C164.43 17.0597 164.43 16.9325 164.537 16.9452C166.346 18.2173 178.755 26.9566 180.001 27.8725C181.81 29.2209 181.81 30.2895 181.756 32.3503C181.649 35.8867 181.381 39.4104 181.019 42.9214C173.917 39.1051 168.799 35.9503 165.154 33.7369C164.511 33.3425 162.929 32.821 162.474 32.1595C162.018 31.498 162.568 30.6966 162.648 30.1114V30.086ZM130.327 111.309C129.751 111.055 128.357 111.513 128.317 112.225C128.948 111.848 129.622 111.54 130.327 111.309ZM135.339 111.042C135.253 110.902 135.136 110.782 134.995 110.691C134.854 110.6 134.694 110.54 134.525 110.515C134.357 110.491 134.185 110.503 134.022 110.55C133.859 110.597 133.709 110.678 133.583 110.788C134.178 110.794 134.769 110.879 135.339 111.042ZM133.382 116.868L132.619 116.957C135.928 118.229 133.744 113.51 132.98 112.569C133.195 113.395 134.749 116.601 133.382 116.868ZM129.496 113.79C129.671 114.477 129.952 113.306 129.885 113.065C129.738 112.416 129.429 113.472 129.496 113.79ZM134.736 112.569C135.071 113.217 135.165 112.2 135.044 111.882C134.843 111.373 134.468 112.022 134.736 112.569ZM133.088 118.776C132.117 118.826 131.162 118.532 130.408 117.95C130.26 118.954 132.176 119.578 133.088 118.776ZM136.799 134.843C135.459 135.072 134.119 135.326 132.86 135.657C134.052 135.581 135.258 135.441 136.451 135.288C135.942 136.204 135.379 137.082 134.789 137.947C133.978 137.265 133.262 136.487 132.659 135.632C133.047 136.497 134.2 138.71 135.232 138.036C135.593 137.769 137.215 134.716 136.799 134.843Z" fill="#37393B"/>
</svg>
