<svg width="296" height="281" viewBox="0 0 296 281" fill="none" xmlns="http://www.w3.org/2000/svg">
<path d="M268.013 105.024C267.554 100.626 265.231 75.7997 264.92 74.6055C264.343 72.3575 262.493 71.8798 260.406 71.2194C242.646 65.5994 233.085 63.1969 233.085 62.663C233.085 59.853 233.573 55.0479 233.736 52.1536C233.855 50.0601 230.451 47.9386 228.926 46.5336C205.897 25.5288 189.484 17.0286 180.826 10.5937C177.082 7.78368 177.156 6.81423 174.906 7.03903C163.066 8.21923 126.555 13.769 104.976 19.8948C104.147 20.1336 102.653 20.2179 102.223 21.0188C102.012 22.0606 101.977 23.1277 102.12 24.18C101.972 26.428 101.839 28.676 101.735 30.924C92.6921 29.0554 75.0949 25.866 74.9321 25.8941C73.9849 26.0768 73.6593 27.2148 73.3485 27.9454C68.7796 38.912 63.0942 49.4291 56.3729 59.3472C55.6477 60.3869 54.4933 61.3985 54.3453 62.6911C54.3692 63.3133 54.4685 63.9309 54.6413 64.5316C54.8337 65.9366 59.2145 99.0384 59.4217 99.9798C83.4717 104.799 87.7785 106.007 89.1697 106.373C85.1701 110.642 82.0836 115.61 80.0825 120.999C75.8793 133.306 79.6385 138.659 90.7385 145.951C95.0608 148.784 99.898 150.832 105.006 151.993C101.587 157.149 97.3541 164.329 98.2125 170.595C98.2125 170.778 98.6713 171.255 98.6269 171.382C98.5825 171.508 97.6945 171.986 97.5465 172.084C83.7825 181.301 62.9737 214.782 36.1413 210.652C35.7269 210.581 35.1201 210.441 34.9425 210.933C34.8516 211.182 34.7968 211.442 34.7797 211.705C34.7797 211.467 33.7585 211.326 33.5809 211.284C30.3397 210.525 28.9929 214.796 28.3417 216.974C27.9273 218.379 25.6777 224.73 28.9337 224.154C31.0205 223.774 32.7521 220.093 33.8621 218.534C36.8221 221.203 43.6153 223.142 44.8585 223.423C52.1221 225.074 59.6226 225.577 67.0585 224.912C84.2857 223.423 100.077 215.682 107.788 208.235C108.987 207.069 110.437 204.708 112.228 204.399C113.708 204.189 114.7 205.509 115.558 206.338C128.434 218.758 130.358 223.072 130.269 222.931C138.24 236.334 143.453 251.052 145.632 266.304C145.735 267.062 145.632 267.863 146.298 268.257C146.757 268.509 147.867 268.018 147.896 268.495C148.015 270.238 147.423 271.671 148.695 273.02C150.294 274.734 155.503 273.666 157.575 273.427C159.055 273.258 161.423 273.146 162.415 272.022C163.407 270.898 162.075 269.802 160.935 269.395C159.455 268.889 154.615 269.086 153.861 267.863C155.755 267.638 156.347 267.779 157.131 265.98C162.001 255.007 162.459 241.168 161.571 229.451C160.299 213.012 152.691 199.117 141.488 186.851C144.048 185.081 145.469 182.299 146.89 179.685C150.219 173.583 152.417 166.981 153.387 160.17C156.882 160.208 160.376 160.049 163.851 159.692C170.54 158.765 177.452 156.981 182.425 152.288C187.076 147.679 189.719 141.571 189.825 135.189C197.979 137.788 228.704 147.834 229.785 148.227C230.302 148.471 230.849 148.655 231.413 148.775C232.671 148.523 234.535 145.516 235.394 144.56C245.048 133.768 255.691 123.81 267.199 114.803C269.36 113.046 269.005 114.69 268.013 105.024ZM34.4837 214.094C34.1581 216.314 33.9953 218.154 32.3821 219.981C31.6421 220.81 28.2085 225.601 27.9421 222.243C27.7349 219.672 29.6145 215.499 30.8133 213.237C31.5237 211.832 31.8049 211.452 33.5513 211.832C35.2977 212.211 34.6909 212.731 34.4837 214.094ZM153.757 268.257C155.237 269.338 158.064 269.156 159.81 269.662C160.447 269.844 162.089 270.167 162.178 271.067C162.297 272.134 159.81 272.472 159.1 272.472C157.425 272.75 155.735 272.938 154.038 273.034C152.869 273.034 150.338 273.511 149.332 272.837C148.325 272.163 148.636 269.507 148.473 268.243C149.746 268.2 152.884 267.582 153.757 268.257ZM176.86 9.09033C195.277 21.089 212.839 34.231 229.429 48.4303C230.463 49.2073 231.442 50.0474 232.36 50.9453C233.292 52.0131 232.844 50.5378 232 62.663C194.008 51.5916 173.456 47.0675 172.923 46.9551C173.16 45.4798 175.528 24.3065 176.86 9.09033ZM103.304 21.4684C126.047 15.0151 149.39 10.649 173.012 8.42998C173.411 8.42998 175.039 8.00848 175.35 8.21923C175.661 8.42998 175.439 9.91928 175.35 10.678C174.388 20.2039 172.122 34.965 171.5 46.5C156.5 42 102.86 31.1348 102.579 31.0645C102.638 29.505 102.815 22.1568 103.304 21.4684ZM112.48 178.435C109.016 176.785 105.678 174.907 102.49 172.815C100.507 171.41 98.9821 170.469 99.3521 167.926C100.418 159.748 105.45 151.642 111.103 145.165C111.917 144.237 113.634 142.551 113.353 142.355C112.835 141.947 106.871 148.565 105.568 151.164C97.7071 149.102 90.474 145.297 84.4633 140.064C79.9049 135.653 78.7209 132.323 80.1269 125.171C81.9621 115.898 88.7997 107.988 95.8593 101.371C97.5021 99.8393 99.0265 98.1954 101.469 98.0549C102.727 98.0549 106.515 98.35 107.389 99.4599C107.921 100.106 107.389 102.27 107.389 103.043C107.196 104.911 106.9 106.752 106.575 108.663C105.916 113.141 104.678 117.525 102.889 121.715C102.667 122.179 101.779 123.443 101.824 123.879C101.824 124.666 102.357 124.469 103.067 124.623C109.875 126.099 118.119 127.827 123.639 132.112C125.548 133.601 128.354 136.45 130.5 136C131.012 135.826 131 136 131.5 135.5C131.842 135.098 132.329 134.338 132.401 133.826C134.455 134.983 136.746 135.711 139.12 135.962C138.454 139.896 140.2 143.998 140.393 147.946C141.014 161.673 132.223 185.418 129.574 185.741C124.793 184.055 125.593 184.954 112.48 178.435ZM100.196 93.4887C99.8997 92.3787 100.714 93.2077 101.202 93.587C101.691 93.9664 102.579 94.992 102.889 94.4441C103.2 93.8961 101.173 92.7862 101.705 91.9994C102.505 91.9994 103.348 92.9407 103.925 93.4044C104.133 93.573 105.198 94.8094 105.405 94.8094C106.249 94.8094 105.524 94.1771 105.405 93.6854C105.124 91.9994 105.613 91.9151 106.545 93.3622C106.723 93.7416 106.974 94.0788 107.152 94.4581C107.662 95.5912 107.821 96.839 107.611 98.0549V98.2657C106.785 97.914 105.94 97.6044 105.08 97.3384C103.955 97.0433 102.031 97.2119 101.128 96.7342C100.817 96.5797 99.8997 95.821 99.8997 95.4276C99.8997 94.5424 101.054 95.4276 101.572 95.6524C102.09 95.8772 100.344 94.0085 100.196 93.4887ZM141.503 135.5C139.922 135.527 138.034 135.363 136.5 135C135.015 134.647 133.998 134.071 132.652 133.379C132.741 133.017 132.751 132.902 132.8 132.534C133.052 132.534 133.274 132.548 133.496 132.379C134.293 131.113 134.572 129.613 134.28 128.164C134.088 127.883 133.126 127.771 132.8 127.588C130.388 126.183 131.32 123.05 133.274 123.823C133.999 124.104 135.716 126.773 136.915 125.916C137.743 125.326 135.745 122.277 135.435 121.49C135.682 121.759 135.984 121.976 136.322 122.131C136.66 122.286 137.028 122.373 137.403 122.39C136.601 121.504 136.11 120.405 135.997 119.242C138.691 121.406 142.287 120.465 145.469 120.718C146.831 120.744 148.171 121.055 149.391 121.631C150.412 122.319 150.19 124.441 150.264 125.691C150.427 128.501 150.59 132.548 147.763 134.121C145.203 135.526 141.695 134.768 141.503 134.838C141.31 134.908 141.503 135.5 141.503 135.5ZM141.917 135.33C146.357 136.51 149.835 134.374 150.619 131.438C151.179 128.653 151.179 125.793 150.619 123.008L159.144 125.607C160.387 125.986 166.737 127.251 166.914 128.417C167.266 130.605 167.791 132.766 168.483 134.88C165.621 134.429 162.861 134.049 160 134.5C156.699 134.708 153.219 135.262 150 135.99C147.531 136.576 145.141 137.594 142.761 138.449C142.124 138.449 142.05 137.592 141.991 137.17C141.976 137.002 141.917 135.33 141.917 135.33ZM150.531 120.83C150.884 121.182 151.211 121.557 151.507 121.954C150.486 121.603 151.034 121.926 150.531 120.83ZM144.285 114.311C139.09 115.617 133.925 116.812 128.656 117.711C131.967 115.844 135.381 114.146 138.883 112.625C143.959 110.405 146.12 109.197 149.998 110.503C156.421 112.681 148.177 113.285 144.285 114.269V114.311ZM143.338 110.222C131.231 113.819 130.018 115.842 125.696 117.781C125.593 117.205 125.533 116.615 125.489 116.025C125.255 113.737 125.841 111.441 127.151 109.509C128.462 107.576 130.421 106.12 132.711 105.375C135.124 104.687 137.151 104.139 139.564 105.108C142.043 106.119 144.29 107.579 146.179 109.407C145.691 109.885 144.063 109.969 143.338 110.18V110.222ZM131.291 131.129C131.661 131.648 131.942 132.534 132.415 132.534C130.935 140.345 125.977 132.393 120.842 129.625C115.258 126.769 109.242 124.75 103.008 123.64C105.073 119.608 106.524 115.317 107.315 110.897C107.315 110.897 116.772 113.58 117.675 113.833C119.969 114.465 122.322 114.859 124.631 115.575C124.853 126.928 129.515 128.6 131.291 131.129ZM188.567 135.442C188.256 143.085 184.733 150.447 177.896 154.719C170.821 159.13 161.793 159.229 153.565 159.215C154.038 155.575 154.182 151.904 153.994 148.242C153.994 147.736 153.52 147.637 153.535 148.157C153.851 157.422 151.89 166.629 147.807 175.049C146.15 178.463 144.3 182.776 141.221 185.249C138.143 187.722 133.925 186.781 130.373 185.924C133.333 182.833 134.813 177.985 136.293 173.714C137.803 169.273 139.034 164.75 139.978 160.17C143.057 144.532 138.113 141.357 139.534 135.99C140.164 136.043 140.798 136.043 141.429 135.99C141.606 138.294 142.346 140.809 145.661 139.615C145.199 139.738 144.712 139.755 144.241 139.665C143.77 139.574 143.329 139.379 142.953 139.095C149.583 136.06 156.776 135.301 164.043 135.203C165.621 135.245 167.194 135.395 168.749 135.653C168.927 135.878 169.756 136.44 169.623 135.259C169.359 134.223 169.023 133.204 168.616 132.21C167.136 126.45 165.553 112.639 169.549 108.101C171.399 105.993 174.788 106.611 176.949 107.876C181.877 110.77 189.099 122.741 188.567 135.442ZM173.589 102.986C173.589 103.183 174.906 102.551 175.069 102.495C177.777 101.244 179.021 101.961 178.029 102.635L176.638 103.52C176.283 103.745 176.889 103.886 177.067 103.886C177.245 103.886 179.248 103.191 179.5 103.5C179.988 104.118 177.511 104.644 177.407 104.785C176.623 105.698 178.029 104.869 178.665 105.206C179.302 105.544 178.295 105.726 177.763 105.965C176.505 106.527 176.046 105.965 174.803 105.782C173.444 105.401 171.988 105.486 170.688 106.021C170.788 105.113 171.107 104.239 171.62 103.466C172.133 102.694 172.827 102.044 173.648 101.567C174.388 101.062 176.875 100.022 175.025 101.68C174.492 102.003 173.471 102.382 173.589 102.986ZM234.269 145.136C233.662 145.811 232.567 147.553 231.738 147.946C230.909 148.34 231.413 148.129 230.613 147.946C228.684 147.471 226.794 146.861 224.96 146.12C189.795 134.065 189.839 134.332 189.81 133.953C189.691 132.548 189.455 130.988 189.366 129.822C189.091 125.837 188.053 121.932 186.302 118.301C184.378 114.086 181.581 108.958 177.097 106.696C177.955 106.569 180.604 104.996 178.295 104.897C179.968 104.279 180.737 102.172 178.295 102.986C180.708 100.851 176.638 101.399 175.454 101.75C176.327 101.497 176.12 99.7831 174.521 100.345C173.328 100.848 172.285 101.625 171.487 102.607C170.688 103.588 170.16 104.742 169.948 105.965C169.771 107.075 168.927 107.019 168.246 107.89C167.529 108.908 167.026 110.048 166.766 111.248C166.157 113.748 165.883 116.312 165.952 118.877C166.032 121.444 166.259 124.005 166.633 126.548C164.531 125.621 152.247 122.46 152.292 122.109C152.551 120.563 152.551 118.989 152.292 117.444C152.218 117.051 151.137 113.833 150.634 113.945C151.833 113.679 153.787 113.229 153.446 111.655C153.017 109.716 148.444 109.646 147.393 109.379C146.342 109.112 145.913 108.536 144.966 107.735C139.697 102.972 136.53 102.045 129.87 105.965C128.399 106.883 127.167 108.106 126.267 109.542C125.367 110.978 124.823 112.59 124.675 114.255C119.673 112.934 114.67 111.627 109.653 110.377C109.22 110.304 108.794 110.196 108.38 110.054C108.188 109.955 107.625 110.054 107.522 109.843C107.58 109.093 107.714 108.349 107.921 107.623C108.203 106.035 108.469 104.448 108.632 102.846C108.933 101.602 108.933 100.31 108.632 99.0665C108.632 98.8417 107.995 98.4764 107.833 98.3359C108.211 96.971 108.112 95.5264 107.551 94.2193C107.315 93.5449 106.737 91.9713 105.849 91.8308C104.71 91.6341 104.739 92.8424 104.947 93.587C104.31 92.9969 99.9441 89.8357 101.365 93.011C99.5445 91.4374 99.2633 93.5308 100.566 94.7813C98.4197 94.0366 99.8257 96.5235 100.906 96.8888C95.9481 97.4508 91.0049 103.998 89.9689 105.389C85.6177 104.125 61.9525 99.6988 60.4725 99.5302C59.7325 95.9334 59.4365 93.1515 56.0325 63.1126C127.28 74.465 197.595 94.135 267.88 113.369C255.725 123.035 244.456 133.662 234.195 145.136H234.269ZM56.0325 62.2415C62.7361 52.254 68.5244 41.7388 73.3337 30.8116C73.7481 29.8703 74.3253 27.538 75.5833 27.271C76.8413 27.0041 79.7865 28.0578 81.2369 28.3248C131.468 37.6961 161.838 42.8244 260.065 72.498C261.017 72.6812 261.932 73.0085 262.774 73.4674C264.121 74.479 263.928 76.7973 264.121 78.3006C264.417 80.7172 268.176 112.021 268.265 112.779C198.423 92.8986 128.982 72.6385 55.9585 62.2134L56.0325 62.2415Z" fill="#37393B"/>
<path d="M66.5977 58.1253C73.4217 60.1371 80.5439 61.086 87.6877 60.9353L66.5977 58.1253ZM79.9917 56.1021C75.9343 55.194 71.822 54.523 67.6781 54.093C71.5853 55.5868 75.7833 56.2717 79.9917 56.1021ZM258.42 76.0671C258.258 74.9993 241.134 71.1637 240.231 71.1918C239.328 71.2199 239.536 72.105 239.417 72.5968C238.707 75.4068 238.13 77.3597 237.848 79.13C237.774 79.5937 237.419 81.3218 238.218 81.4483C244.035 82.4177 258.184 87.0683 258.554 87.0683C258.924 87.0683 258.539 76.7275 258.42 76.0671ZM240.438 80.9003C238.958 80.521 238.87 80.6474 238.958 79.1722C239.109 76.6808 239.606 74.2193 240.438 71.8521C241.001 71.9364 257.236 76.4184 257.399 76.6291C257.917 77.3316 257.784 84.2161 258.021 86.0988C254.158 84.6376 248.12 82.8954 240.438 80.9003ZM178.989 36.5305C183.074 39.1578 186.685 40.1835 197.844 46.9275C198.288 47.1944 199.65 48.3325 200.064 48.3325C201.026 48.1639 200.819 46.9275 200.967 46.0564C201.514 42.6703 201.84 39.2562 202.032 35.842C202.254 31.7956 201.411 31.0088 198.244 28.817C195.076 26.6252 186.64 21.0193 183.088 19.1506C182.585 18.8837 181.431 17.8721 181.209 18.8837C180.188 23.6466 179.729 27.2294 178.796 33.1304C178.663 33.9172 178.116 35.9966 178.989 36.5305ZM179.64 33.2287C180.498 27.2575 181.12 22.3259 181.608 18.8415C181.608 18.8415 181.608 18.701 181.727 18.7151C183.725 20.1201 197.43 29.7724 198.806 30.784C200.804 32.2733 200.804 33.4535 200.745 35.7296C200.626 39.6355 200.33 43.5274 199.931 47.4052C192.087 43.1902 186.433 39.7058 182.408 37.2611C181.697 36.8255 179.951 36.2495 179.448 35.5189C178.944 34.7883 179.551 33.9031 179.64 33.2568V33.2287ZM143.942 122.938C143.306 122.657 141.767 123.163 141.722 123.95C142.419 123.533 143.164 123.193 143.942 122.938ZM149.478 122.643C149.383 122.488 149.254 122.356 149.098 122.255C148.943 122.155 148.765 122.088 148.579 122.061C148.393 122.034 148.203 122.047 148.023 122.099C147.843 122.151 147.678 122.241 147.539 122.362C148.196 122.369 148.849 122.463 149.478 122.643ZM147.317 129.078L146.473 129.176C150.129 130.581 147.716 125.369 146.873 124.329C147.11 125.242 148.826 128.783 147.317 129.078ZM143.025 125.678C143.217 126.436 143.528 125.144 143.454 124.877C143.291 124.16 142.951 125.326 143.025 125.678ZM148.812 124.329C149.182 125.045 149.285 123.921 149.152 123.57C148.93 123.008 148.516 123.725 148.812 124.329ZM146.991 131.185C145.919 131.24 144.864 130.915 144.031 130.272C143.868 131.382 145.985 132.07 146.991 131.185ZM151.091 148.93C149.611 149.183 148.131 149.464 146.74 149.83C148.057 149.745 149.389 149.591 150.706 149.422C150.144 150.434 149.522 151.403 148.871 152.359C147.974 151.605 147.184 150.746 146.518 149.802C146.947 150.757 148.22 153.202 149.359 152.457C149.759 152.162 151.55 148.79 151.091 148.93Z" fill="#37393B"/>
</svg>
