<svg width="44" height="42" viewBox="0 0 44 42" fill="none" xmlns="http://www.w3.org/2000/svg">
<path d="M9.34928 1.31621C15.3278 10.8146 21.5996 20.7494 21.6136 20.7529C21.6276 20.7529 34.1957 0.841296 34.3703 0.547964C34.3947 0.50606 34.2515 0.499076 33.5112 0.499076H32.6277L27.1276 6.17365C24.1035 9.29204 21.6206 11.8447 21.6101 11.8377C21.5996 11.8342 19.1167 9.28157 16.0995 6.16317L10.6064 0.499076H9.71944H8.83594L9.34928 1.31621Z" fill="#4A6CE8"/>
<path d="M0.0345306 10.4417C0.219613 10.6687 21.5948 34.3203 21.6158 34.3203C21.6507 34.3203 43.239 10.4138 43.218 10.3963C43.211 10.3893 41.4859 10.735 39.3837 11.1681L35.5633 11.9538L35.2455 12.275C35.0744 12.4531 31.942 15.7217 28.2857 19.5385C24.633 23.3588 21.6298 26.4807 21.6158 26.4807C21.6018 26.4807 18.4834 23.2401 14.6909 19.2766C10.895 15.3166 7.76258 12.0481 7.72067 12.0131C7.67178 11.9677 6.6451 11.7442 3.83395 11.1681C1.73519 10.735 0.0100858 10.3824 0.00310161 10.3824C-0.00737473 10.3824 0.0100858 10.4103 0.0345306 10.4417Z" fill="#4A6CE8"/>
<path d="M31.9049 26.1668C26.2616 32.6969 21.6311 38.0398 21.6171 38.0398C21.6031 38.0398 16.9796 32.7039 11.3433 26.1843C5.70702 19.6646 1.08695 14.3288 1.07647 14.3288C1.06251 14.3288 1.03108 14.4231 0.999647 14.5383L0.947266 14.7478L11.2315 27.9547C16.8853 35.2217 21.5403 41.1931 21.5717 41.2245C21.6276 41.2769 22.3015 40.4178 31.9572 28.0176L42.2799 14.7513L42.2241 14.5243L42.1647 14.2939L31.9049 26.1668Z" fill="#4A6CE8"/>
</svg>
