<svg width="159" height="49" viewBox="0 0 159 49" fill="none" xmlns="http://www.w3.org/2000/svg">
<path d="M119.017 1.46307C126.063 12.6578 133.455 24.367 133.471 24.3711C133.488 24.3711 148.3 0.903334 148.506 0.557614C148.535 0.508226 148.366 0.499994 147.494 0.499994H146.452L139.97 7.18802C136.406 10.8633 133.48 13.8719 133.467 13.8637C133.455 13.8596 130.529 10.851 126.973 7.17567L120.499 0.499994H119.453H118.412L119.017 1.46307Z" fill="#4F75FF"/>
<path d="M108.041 12.2181C108.259 12.4856 133.451 40.3613 133.476 40.3613C133.517 40.3613 158.96 12.1852 158.936 12.1646C158.927 12.1564 156.894 12.5638 154.416 13.0742L149.914 14.0002L149.539 14.3789C149.338 14.5888 145.646 18.4411 141.337 22.9395C137.032 27.4421 133.492 31.1216 133.476 31.1216C133.459 31.1216 129.784 27.3022 125.314 22.6309C120.841 17.9637 117.149 14.1114 117.099 14.0702C117.042 14.0167 115.832 13.7533 112.519 13.0742C110.045 12.5638 108.012 12.1482 108.004 12.1482C107.991 12.1482 108.012 12.1811 108.041 12.2181Z" fill="#4F75FF"/>
<path d="M145.601 30.7507C138.95 38.447 133.493 44.7441 133.476 44.7441C133.46 44.7441 128.01 38.4553 121.368 30.7712C114.725 23.0872 109.28 16.7984 109.268 16.7984C109.251 16.7984 109.214 16.9095 109.177 17.0453L109.115 17.2923L121.236 32.8579C127.899 41.4227 133.386 48.4605 133.423 48.4976C133.488 48.5593 134.283 47.5469 145.663 32.932L157.829 17.2964L157.763 17.0289L157.693 16.7572L145.601 30.7507Z" fill="#4F75FF"/>
<path d="M51.1941 0.58826C51.155 0.661597 50.935 2.33856 50.6661 4.59244L50.6367 4.85156H52.6999H54.7582L54.8071 4.73911C54.8658 4.58755 55.3058 0.901163 55.2863 0.690931L55.2716 0.524702L53.2573 0.510034C51.3408 0.500256 51.2381 0.505145 51.1941 0.58826Z" fill="#4F75FF"/>
<path d="M56.6687 0.568703C56.6394 0.607816 56.5025 1.52208 56.3705 2.60746C56.2385 3.69284 56.1163 4.64133 56.1065 4.71467L56.082 4.85156H58.155H60.228L60.2769 4.66578C60.3551 4.36265 60.7854 0.661596 60.756 0.578481C60.7267 0.510034 60.5213 0.500256 58.727 0.500256C57.0745 0.500256 56.7127 0.510034 56.6687 0.568703Z" fill="#4F75FF"/>
<path d="M53.7317 7.20276C51.8103 7.39833 49.6591 8.10725 47.7817 9.15841C46.3199 9.97489 45.0389 10.9527 43.802 12.1848C41.2401 14.7418 39.6804 17.7241 39.1769 21.0194C39.1231 21.3812 39.0986 21.875 39.0938 22.5986C39.0938 23.7377 39.1818 24.4467 39.436 25.3316C40.4431 28.8126 43.3619 31.1692 47.1901 31.5896C47.7866 31.6581 49.268 31.6581 49.8449 31.5945C52.8419 31.2572 55.7363 30.0105 58.3324 27.9424C59.1049 27.3263 60.3858 26.0649 60.9823 25.3316C64.4536 21.0683 65.4754 15.9103 63.6077 12.0625C62.2828 9.32953 59.7258 7.60856 56.4305 7.22232C55.7607 7.14409 54.4162 7.13432 53.7317 7.20276ZM54.5727 11.8474C58.1271 12.2288 60.2783 15.2502 59.5498 18.8437C59.0218 21.435 57.1835 23.9431 54.6607 25.5076C51.6881 27.3459 48.2853 27.4779 46.0803 25.84C44.8433 24.9209 44.1198 23.5813 43.9486 21.8945C43.8215 20.6478 44.1442 19.1371 44.8336 17.729C45.3518 16.6779 45.9874 15.8125 46.9212 14.8884C49.0871 12.747 52.0352 11.5736 54.5727 11.8474Z" fill="#4F75FF"/>
<path d="M6.51576 7.34501C6.45709 7.36946 6.38865 7.43301 6.35931 7.48191C6.32998 7.53569 5.9144 9.06109 5.43038 10.8701C4.37433 14.8302 0.712392 28.4806 0.291928 30.0305C0.12081 30.6661 -0.00141818 31.2039 0.00836003 31.3016L0.0230274 31.4728L2.17424 31.4874C3.3574 31.4923 4.37433 31.4874 4.433 31.4728C4.49167 31.4581 4.56501 31.4043 4.59434 31.3456C4.62368 31.2919 5.09792 29.5611 5.65039 27.4979C6.38865 24.7307 6.67221 23.7235 6.74555 23.6502C6.84333 23.5573 6.90689 23.5524 8.90654 23.5524C10.7008 23.5475 10.9746 23.5573 11.0577 23.6257C11.1702 23.7137 11.3022 23.1759 10.0506 27.8206C9.54701 29.6833 9.14121 31.2674 9.15099 31.3408L9.16566 31.4728L11.3413 31.4874C12.5391 31.4923 13.5659 31.4874 13.6196 31.4728C13.6783 31.463 13.7468 31.3896 13.781 31.3163C13.8103 31.2381 14.5828 28.3828 15.4922 24.9702C16.4064 21.5528 17.8243 16.2579 18.6456 13.1924C19.467 10.1318 20.1417 7.56502 20.1417 7.49168C20.1417 7.41346 20.1075 7.34501 20.0635 7.32545C19.9119 7.26678 15.8051 7.29123 15.6731 7.3499C15.5948 7.38901 15.5215 7.48679 15.4726 7.60902C15.4335 7.72147 14.749 10.2491 13.9521 13.2364C12.8569 17.3481 12.4854 18.6877 12.4023 18.7757L12.2996 18.8833L10.2022 18.8735C8.31007 18.8589 8.09495 18.8491 8.05094 18.7757C8.01183 18.7171 8.12917 18.2086 8.54474 16.6734C10.2804 10.2345 10.9991 7.55035 10.9991 7.50146C10.9991 7.47213 10.9649 7.41346 10.9209 7.37434C10.8524 7.3059 10.5933 7.29612 8.73542 7.30101C7.57181 7.30101 6.57443 7.32056 6.51576 7.34501Z" fill="#4F75FF"/>
<path d="M22.4114 7.34488C22.2745 7.39866 22.2158 7.56977 21.854 8.95828C21.6878 9.58898 21.458 10.4543 21.3358 10.8797C21.0913 11.7549 21.0767 11.8673 21.2233 11.9455C21.2967 11.9798 21.9176 11.9944 23.3403 11.9846C24.4453 11.9749 25.3791 11.9846 25.4133 12.0091C25.516 12.0726 25.4818 12.278 25.1591 13.4563C24.8266 14.6736 20.8371 29.5463 20.5438 30.6659C20.446 31.0277 20.3824 31.3651 20.402 31.414C20.4313 31.4922 20.6611 31.4971 24.147 31.4971C27.2418 31.4971 27.9556 31.4824 28.4103 31.4188C32.6443 30.8322 36.492 27.1311 37.0641 23.0927C37.1521 22.4571 37.0983 21.3619 36.9418 20.7753C36.4676 18.9516 35.2649 17.6071 33.5683 16.996C32.7812 16.7173 32.4194 16.6733 30.6838 16.6391C29.3002 16.6146 29.1193 16.6 29.0753 16.5266C29.0361 16.468 29.3002 15.4168 30.2046 12.0482C30.8549 9.62809 31.3878 7.58444 31.3878 7.50133C31.3878 7.41332 31.3585 7.34488 31.3096 7.32532C31.1873 7.28132 22.5287 7.29598 22.4114 7.34488ZM30.6838 21.3913C31.6127 21.6504 32.1994 22.3447 32.2532 23.2491C32.2874 23.7478 32.1994 24.1292 31.9158 24.7012C31.7447 25.0483 31.6371 25.195 31.2216 25.6057C30.4735 26.3488 29.7548 26.7009 28.7868 26.8035C28.2881 26.8573 26.5036 26.872 26.3814 26.8231C26.3374 26.8084 26.3031 26.7497 26.3031 26.7009C26.3031 26.5982 27.5987 21.7286 27.6819 21.5086C27.7112 21.4304 27.7845 21.3473 27.8383 21.3228C27.9996 21.2495 30.3855 21.3082 30.6838 21.3913Z" fill="#4F75FF"/>
<path d="M70.2271 7.34976C70.1685 7.3791 70.0951 7.45243 70.0658 7.5111C70.0365 7.56488 69.5622 9.29563 69.0147 11.3539C67.7728 15.9986 65.6852 23.7967 64.5558 27.9867C64.0864 29.7272 63.7051 31.2184 63.7051 31.2966C63.7051 31.3797 63.7344 31.4482 63.7833 31.4677C63.8273 31.4824 64.8345 31.4971 66.0225 31.4971C68.1395 31.4971 68.1884 31.4971 68.2764 31.3993C68.3351 31.3308 68.7409 29.9032 69.4596 27.2093C70.0609 24.9603 70.5841 23.0682 70.6232 23.0096C70.7258 22.8482 70.9361 22.8238 71.9383 22.8629C74.0064 22.9362 75.5367 22.6429 77.1257 21.8655C78.2502 21.3179 79.3111 20.5504 80.2303 19.6214C83.2322 16.5951 84.0633 12.454 82.2201 9.71609C81.9463 9.3103 81.4525 8.80183 81.0125 8.47426C80.3378 7.97068 79.6191 7.65778 78.6413 7.43777C78.1622 7.33021 78.0839 7.33021 74.2411 7.31554C71.5374 7.30576 70.2956 7.31554 70.2271 7.34976ZM76.5977 12.0433C77.463 12.2144 78.1622 12.9429 78.3235 13.8474C78.5386 15.0403 77.7515 16.5951 76.4901 17.4653C76.1919 17.6707 75.5416 17.9738 75.17 18.0765C74.7398 18.2036 72.0703 18.2476 71.9726 18.1302C71.9188 18.0667 72.0068 17.7 72.5055 15.8421C72.833 14.6248 73.1851 13.2998 73.2926 12.8989C73.4882 12.1606 73.5322 12.0531 73.6886 11.9944C73.8206 11.9455 76.3141 11.9895 76.5977 12.0433Z" fill="#4F75FF"/>
<path d="M91.8905 7.34494C91.8368 7.36449 91.7439 7.43294 91.6901 7.4965C91.6314 7.56006 90.9763 8.72367 90.2283 10.0828C89.0549 12.2145 81.9119 25.1413 81.2567 26.3147C81.1296 26.5445 80.9732 26.7547 80.9096 26.7889C80.8265 26.8329 80.4891 26.8525 79.8047 26.8525C78.8317 26.8525 78.8122 26.8525 78.7437 26.96C78.6851 27.0578 77.541 31.2722 77.541 31.3994C77.541 31.4336 80.5723 31.4482 87.0406 31.4482H96.5352L97.1366 29.1993C97.469 27.9672 97.7281 26.9307 97.7086 26.9063C97.689 26.872 97.3223 26.8525 96.6672 26.8525C95.8556 26.8525 95.6307 26.8378 95.5525 26.7791C95.4352 26.7009 95.4694 27.8547 95.264 17.0987C95.2005 13.6568 95.132 10.0731 95.1125 9.13924C95.0831 7.7654 95.0636 7.42316 95.0098 7.36449C94.9511 7.31071 94.6773 7.29605 93.4648 7.30094C92.6533 7.30094 91.9443 7.32049 91.8905 7.34494ZM90.4874 22.3887C90.5216 24.4275 90.546 26.2658 90.546 26.4711V26.8525H88.3019C87.065 26.8525 86.0236 26.8378 85.9796 26.8231C85.9356 26.8085 85.9014 26.7743 85.9014 26.7498C85.9014 26.7058 87.0846 24.5644 89.0304 21.0833C90.4483 18.5459 90.37 18.6877 90.4043 18.6877C90.4189 18.6877 90.458 20.3549 90.4874 22.3887Z" fill="#4F75FF"/>
<path d="M0 36.2397V36.6309H48.8666H97.7333V36.2397V35.8486H48.8666H0V36.2397Z" fill="#4F75FF"/>
<path d="M45.3203 41.0111C45.3203 41.0306 45.995 42.16 46.8164 43.5241L48.3124 46.0078L47.9995 46.5553C47.6475 47.1811 47.3737 47.5185 47.144 47.6114C46.8799 47.7238 46.5524 47.6945 46.2052 47.5332C46.0341 47.45 45.8874 47.3914 45.8826 47.3963C45.8777 47.406 45.7799 47.5772 45.6674 47.7825L45.4621 48.159L45.6723 48.2616C46.4448 48.6332 47.3982 48.5648 47.9507 48.0954C48.2489 47.8461 48.6009 47.2398 50.0774 44.453C50.8792 42.9325 51.6224 41.5293 51.725 41.3338L51.9157 40.9818H51.3681H50.8157L49.8183 43.0303C49.2658 44.1597 48.8062 45.0691 48.7916 45.0593C48.7818 45.0446 48.2489 44.1303 47.6133 43.0205L46.4595 41.0062L45.8923 40.9915C45.5745 40.9866 45.3203 40.9915 45.3203 41.0111Z" fill="#4F75FF"/>
<path d="M3.22461 44.7462V48.4619H3.71352H4.20243V45.1618V41.8616H6.08474H7.96705V41.446V41.0305H5.59583H3.22461V44.7462Z" fill="#4F75FF"/>
<path d="M23.7598 44.7462V48.4619H24.2731H24.7865V47.0245V45.5871L26.1701 45.5627C27.2604 45.548 27.6075 45.5236 27.8373 45.46C28.5266 45.2644 29.0156 44.8635 29.2991 44.2671C29.4507 43.9493 29.4556 43.9199 29.4556 43.2795C29.4556 42.7074 29.4409 42.5852 29.3431 42.3407C29.1818 41.935 28.8151 41.5585 28.3849 41.3483C27.8275 41.0696 27.5048 41.0354 25.5101 41.0305H23.7598V44.7462ZM27.7053 42.0034C28.0084 42.1403 28.3164 42.4532 28.4093 42.7221C28.4924 42.9714 28.4973 43.5386 28.4093 43.8319C28.3213 44.1399 28.0328 44.4577 27.7102 44.6044C27.4608 44.7169 27.4022 44.7217 26.1212 44.7364L24.7865 44.7511V43.3039V41.8567L26.1212 41.8714C27.3973 41.8861 27.4608 41.891 27.7053 42.0034Z" fill="#4F75FF"/>
<path d="M67.5664 44.7462V48.4619H68.0553H68.5442L68.554 45.1715L68.5687 41.8861L70.5634 41.8714L72.5533 41.8616V45.1618V48.4619H73.0667H73.58V44.7462V41.0305H70.5732H67.5664V44.7462Z" fill="#4F75FF"/>
<path d="M89.2246 44.7462V48.4619H89.738H90.2513V45.1618V41.8616L92.2461 41.8714L94.2359 41.8861L94.2506 45.1715L94.2604 48.4619H94.7493H95.2382V44.7462V41.0305H92.2314H89.2246V44.7462Z" fill="#4F75FF"/>
</svg>
